<svg width="360" height="342" viewBox="0 0 360 342" fill="none" xmlns="http://www.w3.org/2000/svg">
<path d="M206.613 274.635L105.116 226.516V192.559L206.613 240.679V274.635Z" fill="#FD9DAD"/>
<path d="M168.067 281.964H167.986L165.174 314.549L81.8087 275.023L80.6007 259.871L78.9968 239.735L89.5196 244.724L168.067 281.964Z" fill="#FD9DAD"/>
<path d="M150.482 333.395V367.351L150.479 367.349L49.0015 319.24L48.9847 319.232V285.276L82.6234 301.223L150.482 333.395Z" fill="#FC8C9E"/>
<path d="M122.526 379.908V407.246L21.0289 359.124V331.786L122.526 379.908Z" fill="#FC8C9E"/>
<path d="M78.9969 239.735L76.9406 238.76L78.8536 237.929L78.9969 239.735Z" fill="#FC8C9E"/>
<path d="M206.613 274.635L178.438 286.883L78.9968 239.735L78.8536 237.929L105.116 226.516L206.613 274.635Z" fill="white"/>
<path d="M213.099 205.313C211.844 210.085 204.613 214.035 194.854 215.614C191.343 216.327 187.444 216.726 183.337 216.726C177.654 216.726 172.368 215.965 167.96 214.656C173.05 217.715 181.18 219.695 190.343 219.695C197.899 219.695 204.756 218.35 209.782 216.161C210.448 215.872 211.077 215.566 211.675 215.248C215.206 213.375 217.532 211.026 218.114 208.45L213.099 205.313Z" fill="black"/>
<path d="M226.204 217.268C224.765 213.925 222.341 211.099 219.257 209.167L218.114 208.45C217.532 211.026 215.206 213.375 211.675 215.248L228.473 222.541L226.204 217.268Z" fill="white"/>
<path d="M229.392 224.673L209.782 216.161C210.448 215.872 211.077 215.566 211.675 215.248L228.473 222.541L229.392 224.673Z" fill="#FED1D8"/>
<path d="M236.592 227.799L231.653 229.92L229.392 224.673L236.592 227.799Z" fill="#FED1D8"/>
<path d="M238.6 226.937L236.592 227.799L229.392 224.673L228.473 222.541L238.6 226.937Z" fill="#FC8C9E"/>
<path d="M184.025 182.806C183.93 182.84 183.823 182.865 183.708 182.882C183.823 182.865 183.93 182.837 184.025 182.806Z" fill="black"/>
<path d="M188.141 184.301C187.349 184.239 186.545 184.194 185.733 184.163V183.16L188.141 184.301Z" fill="white"/>
<path d="M231.653 229.92L206.613 240.679L105.116 192.559L157.811 169.921L172.812 177.034L182.197 181.483V181.747C181.452 181.93 180.947 182.281 180.944 182.688V184.163C180.739 184.172 180.531 184.18 180.326 184.188C179.916 184.208 179.509 184.233 179.104 184.259C178.699 184.287 178.298 184.318 177.902 184.354C177.702 184.371 177.503 184.391 177.306 184.41C177.107 184.427 176.907 184.45 176.713 184.472C176.517 184.492 176.323 184.514 176.129 184.54C176 184.554 175.874 184.568 175.75 184.584C175.576 184.607 175.402 184.629 175.23 184.652C175.112 184.669 175 184.683 174.885 184.702C174.722 184.725 174.562 184.747 174.402 184.773C174.34 184.781 174.278 184.792 174.216 184.801C174.09 184.82 173.963 184.84 173.837 184.86C173.461 184.922 173.09 184.986 172.725 185.054C172.174 185.155 171.632 185.264 171.098 185.382C170.932 185.419 170.769 185.455 170.607 185.492C170.382 185.542 170.16 185.596 169.941 185.652C169.803 185.683 169.665 185.719 169.531 185.753C169.202 185.837 168.876 185.924 168.556 186.014C168.182 186.118 167.817 186.228 167.455 186.34C167.275 186.396 167.095 186.452 166.918 186.511C166.741 186.568 166.564 186.627 166.39 186.688C166.216 186.747 166.045 186.806 165.876 186.871C165.533 186.992 165.199 187.118 164.87 187.25C164.542 187.379 164.222 187.512 163.907 187.649C158.676 189.925 155.426 193.113 155.426 196.641C155.426 197.958 155.879 199.228 156.721 200.422C158.131 202.422 160.632 204.206 163.907 205.633C168.932 207.821 175.784 209.167 183.337 209.167C190.891 209.167 197.742 207.821 202.768 205.633C206.046 204.206 208.546 202.422 209.956 200.422C210.279 199.967 210.546 199.498 210.748 199.017L211.251 199.15V204.203C211.251 204.686 211.189 205.164 211.068 205.633C210.759 206.858 210.057 208.026 209.021 209.116C206.279 211.995 201.203 214.321 194.854 215.614C191.343 216.327 187.444 216.726 183.337 216.726C177.655 216.726 172.368 215.965 167.96 214.656C173.05 217.715 181.18 219.695 190.343 219.695C197.9 219.695 204.756 218.35 209.782 216.161L229.392 224.673L231.653 229.92Z" fill="white"/>
<path d="M259.309 218.041L255.132 219.836L238.6 226.937L228.474 222.541L226.204 217.268C224.766 213.925 222.341 211.099 219.257 209.167L218.114 208.45C218.209 208.029 218.257 207.602 218.257 207.169C218.257 203.987 215.611 201.082 211.251 198.874V199.15L210.748 199.017C210.793 198.919 210.833 198.821 210.869 198.72C210.872 198.708 210.878 198.7 210.878 198.689C210.908 198.607 210.937 198.529 210.962 198.45C210.998 198.332 211.032 198.217 211.063 198.102C211.071 198.068 211.08 198.037 211.088 198.003C211.094 197.978 211.099 197.956 211.105 197.93C211.119 197.871 211.13 197.812 211.142 197.751C211.153 197.706 211.161 197.664 211.167 197.619C211.223 197.296 211.251 196.97 211.251 196.641C211.251 196.141 211.187 195.647 211.057 195.163L259.309 218.041Z" fill="#FED1D8"/>
<path d="M176.848 321.552L150.482 333.392L48.9847 285.273L76.9406 272.716L97.0283 283.711L176.848 321.552Z" fill="#FED1D8"/>
<path d="M147.435 368.717L140.785 371.705L122.526 379.905L21.0289 331.786L48.9848 319.229L49.0017 319.24L65.9797 330.1L147.435 368.717Z" fill="#FED1D8"/>
<path d="M259.309 218.041V349.722L206.807 371.801L192.144 377.967L122.526 407.243V379.905L140.785 371.705L147.434 368.717L150.479 367.349H150.482V333.392L176.848 321.552L178.438 320.839V286.883L188.975 282.301H188.978L206.613 274.635V240.679L231.653 229.92L236.592 227.799L238.6 226.937L255.132 219.836L259.309 218.041Z" fill="#8A374D"/>
<path d="M211.088 198.003C211.08 198.037 211.071 198.068 211.063 198.102C211.032 198.217 210.998 198.332 210.962 198.45C210.936 198.529 210.908 198.607 210.877 198.689C210.877 198.7 210.872 198.708 210.869 198.72C210.653 199.301 210.346 199.871 209.956 200.422C208.546 202.422 206.046 204.206 202.768 205.633C197.742 207.821 190.891 209.167 183.337 209.167C175.784 209.167 168.932 207.821 163.907 205.633C160.631 204.206 158.131 202.422 156.721 200.422C155.878 199.228 155.426 197.958 155.426 196.641C155.426 193.113 158.676 189.925 163.907 187.649C164.221 187.512 164.542 187.379 164.87 187.25C165.199 187.118 165.533 186.992 165.876 186.871C166.044 186.809 166.216 186.747 166.39 186.688C166.564 186.627 166.741 186.568 166.918 186.511C167.095 186.452 167.275 186.396 167.455 186.34C167.817 186.228 168.182 186.118 168.556 186.014C168.876 185.924 169.202 185.837 169.531 185.753C169.665 185.719 169.803 185.683 169.941 185.652C170.16 185.596 170.382 185.542 170.606 185.492C170.769 185.455 170.932 185.419 171.098 185.382C171.632 185.264 172.174 185.155 172.724 185.054C173.09 184.986 173.46 184.922 173.837 184.86C174.022 184.829 174.21 184.801 174.401 184.773C174.562 184.747 174.722 184.725 174.885 184.702C175 184.683 175.112 184.669 175.23 184.652C175.401 184.629 175.576 184.607 175.75 184.584C175.873 184.568 176 184.554 176.129 184.54C176.323 184.514 176.517 184.492 176.713 184.472C176.907 184.45 177.107 184.427 177.306 184.41C177.503 184.391 177.702 184.371 177.902 184.354C178.298 184.318 178.699 184.287 179.104 184.259C179.508 184.233 179.916 184.208 180.326 184.188C180.531 184.18 180.739 184.172 180.944 184.163V190.958C180.955 191.548 182.022 192.026 183.337 192.026C184.545 192.026 185.542 191.624 185.708 191.104C185.725 191.057 185.733 191.009 185.733 190.958V184.163C186.545 184.194 187.349 184.239 188.141 184.301C193.778 184.739 198.832 185.936 202.768 187.649C203.006 187.753 203.242 187.86 203.473 187.969C202.194 188.436 200.495 189.026 199.149 189.52C198.613 189.719 198.13 189.902 197.753 190.054L198.964 190.801C199.102 190.877 199.234 190.955 199.366 191.034C199.515 191.079 199.661 191.124 199.801 191.169C200.905 191.604 202.001 191.413 203.04 191.95C204.22 192.475 204.686 193.655 205.602 194.45C206.262 195.017 207.211 195.256 207.835 195.767C208.327 196.161 208.675 196.641 209.181 197.06C209.844 197.593 210.453 197.871 211.085 198.003H211.088Z" fill="#FED1D8"/>
<path d="M218.114 208.45C217.532 211.026 215.206 213.375 211.675 215.248C211.077 215.566 210.448 215.872 209.782 216.161C204.756 218.35 197.899 219.695 190.343 219.695C181.18 219.695 173.05 217.715 167.96 214.656C172.368 215.965 177.654 216.726 183.337 216.726C187.444 216.726 191.343 216.327 194.854 215.614C204.613 214.035 211.844 210.085 213.099 205.313L218.114 208.45Z" fill="#FED1D8"/>
<path d="M218.257 207.169C218.257 207.602 218.209 208.029 218.114 208.45L213.099 205.313C211.844 210.085 204.613 214.035 194.854 215.614C203.605 213.833 209.942 210.088 211.068 205.633C211.189 205.164 211.251 204.686 211.251 204.203V198.874C215.611 201.082 218.257 203.987 218.257 207.169Z" fill="#FC8C9E"/>
<path d="M187.795 190.95V190.958C187.792 191.332 187.562 191.68 187.16 191.978C187.141 191.992 187.118 192.009 187.099 192.02C187.048 192.054 186.997 192.09 186.944 192.121C186.888 192.155 186.832 192.189 186.775 192.22C186.618 192.309 186.441 192.388 186.253 192.461C186.225 192.472 186.197 192.481 186.169 192.492C186.107 192.514 186.042 192.537 185.978 192.559C185.905 192.585 185.829 192.607 185.75 192.63C185.674 192.652 185.596 192.675 185.514 192.694C185.45 192.711 185.382 192.728 185.315 192.742C185.23 192.762 185.143 192.779 185.054 192.795C184.966 192.812 184.877 192.826 184.787 192.84C184.686 192.857 184.584 192.871 184.48 192.882C184.303 192.905 184.121 192.922 183.935 192.933C183.739 192.944 183.539 192.95 183.337 192.95C183.188 192.95 183.042 192.947 182.896 192.939H182.879C182.739 192.933 182.601 192.925 182.464 192.911C182.447 192.911 182.433 192.908 182.416 192.908C182.295 192.894 182.174 192.882 182.056 192.863C181.907 192.846 181.761 192.821 181.618 192.795C181.531 192.779 181.447 192.762 181.362 192.742C181.309 192.731 181.256 192.72 181.205 192.705C181.143 192.691 181.081 192.675 181.025 192.658C181.003 192.652 180.98 192.647 180.961 192.641C180.871 192.616 180.781 192.588 180.697 192.559C180.601 192.529 180.511 192.495 180.421 192.461C180.374 192.441 180.331 192.425 180.286 192.405C180.244 192.388 180.205 192.371 180.163 192.352C180.081 192.315 180.003 192.276 179.927 192.234C179.851 192.197 179.778 192.155 179.711 192.11C179.643 192.068 179.579 192.023 179.517 191.978C179.118 191.68 178.885 191.329 178.882 190.958V190.95C178.882 190.242 179.702 189.618 180.944 189.264V190.958C180.955 191.548 182.023 192.026 183.337 192.026C184.545 192.026 185.542 191.624 185.708 191.104C185.73 191.099 185.753 191.096 185.775 191.09C185.823 191.082 185.871 191.073 185.916 191.062C185.952 191.054 185.989 191.045 186.025 191.037C186.07 191.026 186.113 191.014 186.152 191C186.194 190.989 186.236 190.978 186.275 190.964C186.312 190.953 186.346 190.939 186.379 190.927C186.393 190.922 186.41 190.916 186.424 190.91C186.525 190.871 186.621 190.829 186.708 190.778C186.739 190.764 186.767 190.745 186.798 190.728C186.826 190.711 186.854 190.691 186.882 190.672C186.893 190.666 186.905 190.658 186.916 190.649C187.132 190.489 187.259 190.301 187.259 190.099V190.093C187.259 190.057 187.256 190.026 187.247 189.992C187.495 190.194 187.669 190.419 187.747 190.655C187.778 190.75 187.795 190.849 187.795 190.95Z" fill="black"/>
<path d="M187.795 190.95C187.795 190.849 187.778 190.75 187.747 190.655L194.124 187.986C194.689 188.231 195.214 188.495 195.692 188.778L187.795 192.079V190.95Z" fill="#FC8C9E"/>
<path d="M198.88 193.006C198.88 196.857 191.922 199.981 183.337 199.981C174.753 199.981 167.797 196.857 167.797 193.006C167.797 192.18 168.118 191.388 168.705 190.655C168.879 190.433 169.078 190.217 169.303 190.006C169.609 189.719 169.96 189.441 170.351 189.174L170.37 189.163C172.733 187.562 176.534 186.422 180.944 186.118V190.958C180.955 191.548 182.023 192.026 183.337 192.026C184.545 192.026 185.542 191.624 185.708 191.104C185.725 191.057 185.733 191.009 185.733 190.958V186.115C188.969 186.34 191.874 187.014 194.124 187.986L187.747 190.655C187.778 190.75 187.795 190.849 187.795 190.95V192.079L195.691 188.778C195.905 188.902 196.11 189.031 196.307 189.163H196.312C196.706 189.433 197.06 189.711 197.369 190.006C197.593 190.214 197.795 190.433 197.972 190.655C198.56 191.388 198.88 192.18 198.88 193.006Z" fill="#FED1D8"/>
<path d="M211.251 196.641V204.203C211.251 204.686 211.189 205.164 211.068 205.633C209.942 210.088 203.605 213.833 194.854 215.614C191.343 216.327 187.444 216.726 183.337 216.726C177.654 216.726 172.368 215.965 167.96 214.656C161.244 212.661 156.561 209.4 155.609 205.633C155.488 205.164 155.426 204.686 155.426 204.203V196.641C155.426 197.958 155.878 199.228 156.721 200.422C157.041 200.877 157.421 201.321 157.85 201.754C159.092 202.995 160.772 204.133 162.8 205.122C163.16 205.299 163.528 205.467 163.907 205.633C168.932 207.821 175.784 209.167 183.337 209.167C190.891 209.167 197.742 207.821 202.768 205.633C206.046 204.206 208.546 202.422 209.956 200.422C210.346 199.871 210.653 199.301 210.869 198.72C210.872 198.708 210.877 198.7 210.877 198.689C210.908 198.607 210.936 198.529 210.962 198.45C210.998 198.332 211.032 198.217 211.063 198.102C211.071 198.068 211.08 198.037 211.085 198.003H211.088C211.094 197.978 211.099 197.956 211.105 197.93C211.119 197.871 211.13 197.812 211.141 197.751C211.15 197.708 211.158 197.664 211.167 197.619C211.223 197.296 211.251 196.97 211.251 196.641Z" fill="#FD9DAD"/>
<path d="M203.327 196.394C203.327 201.346 194.377 205.36 183.337 205.36C172.297 205.36 163.351 201.346 163.351 196.394C163.351 194.284 164.974 192.343 167.693 190.812L170.351 189.174C169.96 189.441 169.609 189.719 169.303 190.006C169.078 190.217 168.879 190.433 168.705 190.655C168.118 191.388 167.797 192.18 167.797 193.006C167.797 196.857 174.755 199.981 183.337 199.981C191.919 199.981 198.88 196.857 198.88 193.006C198.88 192.18 198.56 191.388 197.972 190.655C197.956 190.632 197.936 190.61 197.916 190.587C197.795 190.439 197.661 190.292 197.517 190.149C197.47 190.101 197.419 190.054 197.369 190.006C197.06 189.711 196.706 189.433 196.312 189.166L197.753 190.054L198.964 190.801C199.102 190.877 199.234 190.955 199.366 191.034C201.855 192.529 203.327 194.385 203.327 196.394Z" fill="#FD9DAD"/>
<path d="M184.481 56.8389V182.399C184.481 182.45 184.464 182.497 184.433 182.542C184.292 182.756 183.854 182.91 183.337 182.91C182.711 182.91 182.2 182.683 182.197 182.399V56.3782C182.5 56.6113 182.916 56.8361 183.402 56.8726C183.767 56.8979 184.143 56.8782 184.481 56.8389Z" fill="#FC8C9E"/>
<path d="M185.733 182.694V190.958C185.733 191.009 185.725 191.057 185.708 191.104C185.542 191.624 184.545 192.026 183.337 192.026C182.023 192.026 180.955 191.548 180.944 190.958V182.694C180.944 183.287 182.017 183.767 183.337 183.767C183.413 183.767 183.492 183.764 183.565 183.761C183.655 183.759 183.739 183.753 183.823 183.745C183.888 183.739 183.95 183.733 184.011 183.725C184.113 183.711 184.211 183.694 184.304 183.677C184.357 183.666 184.41 183.655 184.461 183.641C184.742 183.576 184.986 183.483 185.186 183.377C185.211 183.362 185.233 183.348 185.259 183.334C185.292 183.315 185.326 183.292 185.357 183.27C185.379 183.256 185.399 183.242 185.419 183.225C185.447 183.202 185.475 183.18 185.5 183.155C185.526 183.132 185.548 183.107 185.57 183.082C185.576 183.076 185.582 183.068 185.587 183.062C185.607 183.039 185.624 183.017 185.638 182.992C185.646 182.98 185.652 182.972 185.658 182.961C185.672 182.938 185.683 182.916 185.691 182.893C185.705 182.86 185.717 182.829 185.722 182.795C185.731 182.761 185.733 182.728 185.733 182.694Z" fill="#FD9DAD"/>
<path d="M185.733 182.688V182.694C185.733 182.728 185.731 182.761 185.722 182.795C185.717 182.829 185.705 182.86 185.691 182.893C185.683 182.916 185.672 182.938 185.658 182.961C185.652 182.972 185.646 182.98 185.638 182.992C185.624 183.017 185.607 183.039 185.587 183.062C185.582 183.068 185.576 183.076 185.57 183.082C185.548 183.107 185.526 183.132 185.5 183.155C185.475 183.18 185.447 183.202 185.419 183.225C185.399 183.242 185.379 183.256 185.357 183.27C185.326 183.292 185.292 183.315 185.259 183.334C185.233 183.348 185.211 183.362 185.186 183.377C184.986 183.483 184.742 183.576 184.461 183.641C184.41 183.655 184.357 183.666 184.304 183.677C184.211 183.694 184.113 183.711 184.011 183.725C183.95 183.733 183.888 183.739 183.823 183.745C183.739 183.753 183.655 183.759 183.565 183.761C183.492 183.764 183.413 183.767 183.337 183.767C182.017 183.767 180.944 183.287 180.944 182.694V182.688C180.944 182.281 181.452 181.93 182.197 181.747V182.399C182.2 182.683 182.708 182.91 183.334 182.91H183.337C183.458 182.924 183.584 182.933 183.716 182.933C184.149 182.933 184.54 182.854 184.815 182.725C185.084 182.598 185.247 182.436 185.247 182.247C185.247 182.146 185.2 182.053 185.118 181.972C185.5 182.163 185.731 182.413 185.733 182.688Z" fill="white"/>
<path d="M185.247 182.244C185.247 182.436 185.085 182.598 184.815 182.725C184.54 182.854 184.149 182.933 183.717 182.933C183.584 182.933 183.458 182.924 183.337 182.91C183.402 182.91 183.467 182.907 183.528 182.902C183.542 182.902 183.554 182.902 183.568 182.899C183.615 182.896 183.663 182.891 183.708 182.882C183.823 182.865 183.93 182.84 184.026 182.806C184.146 182.767 184.247 182.716 184.323 182.655C184.34 182.643 184.351 182.632 184.365 182.618C184.394 182.596 184.416 182.57 184.433 182.542C184.464 182.497 184.481 182.45 184.481 182.399V181.747C184.722 181.806 184.938 181.882 185.118 181.972C185.2 182.053 185.247 182.146 185.247 182.244Z" fill="#FD9DAD"/>
<path d="M187.795 190.958V193.006C187.795 193.149 187.761 193.29 187.697 193.425C187.483 193.871 186.941 194.265 186.183 194.543C185.413 194.832 184.419 195.006 183.337 195.006C182.669 195.006 182.037 194.939 181.466 194.821C179.941 194.503 178.882 193.809 178.882 193.006V190.958C178.885 191.329 179.118 191.68 179.517 191.978C179.579 192.023 179.643 192.068 179.711 192.11C179.778 192.155 179.851 192.197 179.927 192.234C180.003 192.276 180.081 192.315 180.163 192.352C180.205 192.371 180.244 192.388 180.286 192.405C180.331 192.425 180.374 192.441 180.421 192.461C180.511 192.495 180.601 192.529 180.697 192.559C180.781 192.588 180.871 192.616 180.961 192.641C180.98 192.647 181.003 192.652 181.025 192.658C181.081 192.675 181.143 192.691 181.205 192.705C181.256 192.72 181.309 192.731 181.362 192.742C181.447 192.762 181.531 192.779 181.618 192.795C181.761 192.821 181.907 192.846 182.056 192.863C182.174 192.882 182.295 192.894 182.416 192.908C182.433 192.908 182.447 192.911 182.464 192.911C182.601 192.925 182.739 192.933 182.879 192.939H182.896C183.042 192.947 183.188 192.95 183.337 192.95C183.539 192.95 183.739 192.944 183.935 192.933C184.121 192.922 184.303 192.905 184.48 192.882C184.584 192.871 184.686 192.857 184.787 192.84C184.877 192.826 184.966 192.812 185.054 192.795C185.143 192.779 185.228 192.762 185.315 192.742C185.382 192.728 185.45 192.711 185.514 192.694C185.596 192.675 185.674 192.652 185.75 192.63C185.829 192.607 185.905 192.585 185.978 192.559C186.042 192.537 186.107 192.514 186.169 192.492C186.197 192.481 186.225 192.472 186.253 192.461C186.441 192.385 186.615 192.307 186.775 192.22C186.832 192.189 186.888 192.155 186.944 192.121C186.997 192.09 187.048 192.054 187.099 192.02C187.118 192.009 187.141 191.992 187.16 191.978C187.562 191.68 187.792 191.332 187.795 190.958Z" fill="#FD9DAD"/>
<path d="M184.481 56.4007V56.8389C184.143 56.8782 183.767 56.8979 183.402 56.8726C182.916 56.8361 182.5 56.6113 182.197 56.3782V55.9456L184.481 56.4007Z" fill="#FED1D8"/>
<path d="M204.571 204.759L203.009 205.546L197.183 202.914L194.017 198.149L192.781 197.787C192.618 197.804 192.45 197.812 192.276 197.812C191.725 197.812 191.186 197.725 190.675 197.517C190.217 197.329 189.767 197.121 189.312 196.925C188.798 196.7 188.284 196.475 187.77 196.251C187.408 196.093 187.045 195.936 186.686 195.779C186.273 195.835 185.834 195.866 185.379 195.866C183.691 195.866 182.222 195.444 181.466 194.821C182.037 194.939 182.669 195.006 183.337 195.006C183.798 195.006 184.239 194.975 184.657 194.913C186.037 194.832 187.217 194.47 187.902 193.958C188.304 193.661 188.534 193.312 188.537 192.939V192.93C188.537 192.742 188.478 192.559 188.368 192.385C189.27 192.75 189.835 193.276 189.835 193.866C189.835 194.003 189.804 194.138 189.745 194.267C191.087 194.821 192.543 195.425 193.284 195.739C194.13 196.099 194.565 196.371 194.565 196.784C194.565 196.894 194.526 197.001 194.456 197.099L195.517 197.411L198.658 202.172L204.571 204.759Z" fill="#FC8C9E"/>
<path d="M210.45 77.48L206.995 155.269C206.995 155.269 206.981 155.246 206.976 155.235C203.829 150.269 197.197 145.766 194.012 143.513C192.933 142.583 192.992 141.642 192.104 140.676C191.613 140.136 190.964 139.76 190.422 139.268C189.632 138.575 189.542 138.162 188.733 137.611C187.826 137.103 186.778 136.277 186.579 135.232C186.483 132.058 186.573 57.5692 186.573 57.5692C190.422 60.7716 195.059 64.6509 198.633 67.5414C202.571 70.8056 207.119 73.5529 210.45 77.48Z" fill="#FC8C9E"/>
<path d="M238.853 112.057C238.777 113.228 236.002 156.561 234.698 176.955C234.297 183.048 234.069 187.042 234.021 187.371C233.943 187.36 229.732 186.607 225.117 184.132C224.639 183.877 224.159 183.601 223.676 183.309C221.555 182.014 219.431 180.343 217.661 178.197C211.788 170.601 209.487 159.199 206.995 155.269L210.45 77.48C210.979 78.1008 211.476 78.7553 211.936 79.4435C213.038 81.3059 213.667 83.3116 214.504 85.3341C215.852 88.6882 217.189 92.3372 218.729 95.6266C218.965 96.135 219.206 96.6323 219.453 97.1182C221.288 100.832 224.145 104.057 227.707 106.647C230.732 108.849 234.263 110.593 238.106 111.787C238.325 111.852 238.558 111.939 238.749 111.998C238.831 112.029 238.853 112.043 238.853 112.057Z" fill="#FD9DAD"/>
<path d="M166.629 315.24C123.571 310.892 90.0786 295.313 81.834 275.368L81.8087 275.023L165.174 314.549L166.629 315.24Z" fill="white"/>
<path d="M81.6683 274.958L81.8087 275.023L81.834 275.368C81.7778 275.231 81.7216 275.096 81.6683 274.958Z" fill="black"/>
<path d="M178.438 286.883V320.839L166.629 315.24L165.174 314.549L167.986 281.964H168.067L168.073 281.967L178.438 286.883Z" fill="#FC8C9E"/>
<path d="M81.8087 275.023L81.6683 274.958L76.9406 272.716V238.76L78.9969 239.735L80.6008 259.871L81.8087 275.023Z" fill="#FC8C9E"/>
<path d="M188.975 282.301L178.438 286.883L168.073 281.967L188.975 282.301Z" fill="#FC8C9E"/>
<path d="M150.482 367.349L147.434 368.717L65.9796 330.1L48.9847 319.229L150.482 367.349Z" fill="#FC8C9E"/>
<path d="M178.438 320.839L176.848 321.552L97.0283 283.711L76.9406 272.716L165.174 314.549L166.629 315.24L178.438 320.839Z" fill="#FC8C9E"/>
<path d="M187.259 190.093V190.099C187.259 190.301 187.132 190.489 186.916 190.649C186.905 190.658 186.894 190.666 186.882 190.672C186.854 190.691 186.826 190.711 186.798 190.728C186.767 190.745 186.739 190.764 186.708 190.778C186.621 190.829 186.526 190.871 186.424 190.91C186.41 190.916 186.394 190.922 186.38 190.927C186.346 190.939 186.312 190.953 186.276 190.964C186.236 190.978 186.194 190.989 186.152 191C186.113 191.014 186.071 191.026 186.026 191.037C185.989 191.045 185.953 191.054 185.916 191.062C185.871 191.073 185.823 191.082 185.776 191.09C185.753 191.096 185.731 191.099 185.708 191.104C185.725 191.057 185.733 191.009 185.733 190.958V189.267C186.363 189.444 186.885 189.694 187.248 189.992C187.256 190.026 187.259 190.057 187.259 190.093Z" fill="#FC8C9E"/>
<path d="M211.251 196.641C211.251 196.97 211.223 197.296 211.167 197.619C211.161 197.664 211.153 197.706 211.141 197.751C211.13 197.812 211.119 197.871 211.105 197.93C211.099 197.956 211.094 197.978 211.088 198.003H211.085C210.453 197.871 209.844 197.593 209.181 197.06C208.675 196.641 208.327 196.161 207.835 195.767C207.212 195.256 206.262 195.017 205.602 194.45C204.686 193.655 204.22 192.475 203.04 191.95C202.001 191.413 200.905 191.604 199.801 191.169C199.661 191.124 199.515 191.079 199.366 191.034C199.234 190.955 199.102 190.877 198.964 190.801L197.753 190.054C198.13 189.902 198.613 189.719 199.15 189.52C200.495 189.026 202.195 188.436 203.473 187.969C207.574 189.882 210.33 192.382 211.057 195.163C211.186 195.647 211.251 196.141 211.251 196.641Z" fill="#FED1D8"/>
<path d="M211.392 198.057C211.344 198.051 211.299 198.043 211.251 198.034C211.198 198.026 211.142 198.017 211.088 198.003" fill="black"/>
<path d="M188.537 192.93V192.939C188.534 193.312 188.304 193.661 187.902 193.958C187.217 194.47 186.037 194.832 184.657 194.913C185.222 194.838 185.739 194.708 186.183 194.543C186.941 194.265 187.483 193.871 187.697 193.425C187.762 193.29 187.795 193.149 187.795 193.006V192.186C187.997 192.245 188.191 192.312 188.368 192.385C188.478 192.559 188.537 192.742 188.537 192.93Z" fill="#FC8C9E"/>
<path d="M182.197 55.7658V56.3782C181.846 56.1113 181.641 55.836 181.641 55.836C181.834 55.8051 182.02 55.7827 182.197 55.7658Z" fill="#FC8C9E"/>
<path d="M185.615 56.6254C185.615 56.6254 185.118 56.763 184.481 56.8389V55.9315C185.323 56.1984 185.615 56.6254 185.615 56.6254Z" fill="#FC8C9E"/>
<path d="M184.481 45.8778V56.8389C184.143 56.8782 183.767 56.8979 183.402 56.8726C182.916 56.8361 182.5 56.6113 182.197 56.3782V45.8778H184.481Z" fill="#FED1D8"/>
<path d="M184.481 48.6785V58.1844H183.955C183.91 56.2433 183.245 54.4989 182.197 53.2545V48.6785H184.478H184.481Z" fill="#FC8C9E"/>
<path d="M186.424 45.993C186.424 47.6981 185.042 49.0802 183.34 49.0802C181.638 49.0802 180.253 47.6981 180.253 45.993C180.253 45.5576 180.343 45.1447 180.506 44.7683C180.256 45.4059 180.25 46.111 180.551 46.7402C181.169 48.038 182.854 48.5268 184.317 47.8273C185.781 47.1307 186.466 45.5127 185.846 44.2149C185.834 44.1924 185.823 44.1699 185.812 44.1503C186.197 44.6643 186.424 45.302 186.424 45.993Z" fill="#FD9DAD"/>
<path d="M184.318 47.8273C182.854 48.5268 181.169 48.038 180.551 46.7402C180.25 46.111 180.256 45.4059 180.506 44.7683C180.522 44.7317 180.537 44.6924 180.556 44.6559C181.056 43.6222 182.115 42.9086 183.34 42.9086C184.348 42.9086 185.247 43.3946 185.809 44.1475C185.809 44.1475 185.812 44.1475 185.812 44.1503C185.823 44.1699 185.834 44.1924 185.846 44.2149C186.466 45.5127 185.781 47.1307 184.318 47.8273Z" fill="white"/>
<path d="M184.16 56.8698V136.372C183.598 136.513 182.228 136.768 181.61 136.15L181.64 55.836L182.197 55.9456V56.3782C182.5 56.6113 182.916 56.8361 183.402 56.8726C183.655 56.8894 183.913 56.8866 184.16 56.8698Z" fill="#FD9DAD"/>
<path d="M186.573 57.5692V134.726C186.573 134.726 186.062 134.706 185.523 134.968V56.6057L185.615 56.6254L186.573 57.5692Z" fill="#FD9DAD"/>
<path d="M187.436 58.2855C187.146 58.044 186.857 57.8052 186.576 57.5692C186.576 57.5692 186.486 132.058 186.582 135.232C186.686 135.771 187.017 136.254 187.436 136.664V58.2855Z" fill="#FC8C9E"/>
<path d="M185.523 56.6057V134.968C185.084 135.178 184.629 135.572 184.407 136.305C184.407 136.305 184.315 136.333 184.16 136.372V56.8698C184.27 56.8613 184.377 56.8501 184.48 56.8389V56.4007L185.523 56.6057Z" fill="#FC8C9E"/>
<path d="M238.409 415.78C215.611 422.137 189.02 426.084 160.564 426.727C74.8142 428.665 4.61539 399.872 3.76705 362.416C3.34007 343.505 20.6749 325.999 48.9848 313.055V319.229L21.0288 331.786V359.124L34.3719 368.509L139.381 418.252L165.89 407.105L193.703 420.269L222.4 408.201L238.409 415.78Z" fill="white"/>
<path d="M313.03 364.82C306.833 386.009 278.472 404.614 238.409 415.78L222.4 408.201L193.703 420.269L165.89 407.105L139.381 418.252L34.372 368.509L21.0289 359.124L122.526 407.246L192.144 377.967L206.807 371.801L259.309 349.722V339.393L269.871 344.393L276.163 347.37L278.551 348.5L282.107 350.182L299.487 358.41L299.588 358.458L313.03 364.82Z" fill="#FC8C9E"/>
<path d="M313.03 364.82L299.588 358.458L299.487 358.41L282.107 350.182L278.551 348.5L276.163 347.37L269.871 344.393L259.309 339.393V305.268C292.551 316.959 313.83 334.879 314.294 355.396C314.367 358.581 313.934 361.728 313.03 364.82Z" fill="white"/>
</svg>
